*General Informations*

Title: Resident Evil Afterlife 2010 720p BRRip H.264 AAC-TheFalcon007 (Kingdom-Release).mp4
Year: 2010
Runtime: 1:36:52
Language: English | Japanese
Release Date: 25/11/2010

*File Informations*

Video: 2550 Kbps VBR H.264/AVC 23.376 FPS
Maximum video bitrate: 12.7 Mbps
Audio 01: AAC 48000Hz 448 kbPs 6 Channels VBR
Audio 02: AAC 48000Hz 128 kbPs 2 Channels VBR
Overall Bitrate: 3,129 Kbps VBR
Resolution: 1280 x 534
Aspect Ratio: 2.40 : 1
Subtitles: English
File Size: 2.11 GB (2,273,381,636 bytes)

*Movie Informations*

Genre: Action | Adventure | Horror | Sci-Fi | Thriller
IMDB Rating: 6.2/10 (22,759 votes)
IMDB URL: http://www.imdb.com/title/tt1220634/
Country: Germany | France | UK
Release Date: 10 September 2010 (India)
Director: Paul W.S. Anderson

Cast:

Milla Jovovich        ... Alice
Ali Larter      ... Claire Redfield
Wentworth Miller      ... Chris Redfield
Kim Coates      ... Bennett
Shawn Roberts      ... Albert Wesker
Sergio Peris-Mencheta ... Angel Ortiz
Spencer Locke      ... K-Mart
Boris Kodjoe      ... Luther West
Sienna Guillory       ... Jill Valentine
Kacey Barnfield       ... Crystal
Norman Yeung      ... Kim Yong
Fulvio Cecere      ... Wendell
Ray Olubowale      ... Axeman
Christopher Kano      ... Sniper #1
Tatsuya Goke      ... Sniper #2

Awards: -
Plot Keywords: Undead | Survivor | Corporation | Umbrella | Virus  
MPAA: Rated R for sequences of strong violence and language.
Company: Constantin Film Produktion
Plot: In a world ravaged by a virus infection, turning its victims into the Undead, Alice (Jovovich), continues on her journey to find survivors and lead them to safety. Her deadly battle with the Umbrella Corporation reaches new heights, but Alice gets some unexpected help from an old friend. A new lead that promises a safe haven from the Undead takes them to Los Angeles, but when they arrive the city is overrun by thousands of Undead - and Alice and her comrades are about to step into a deadly trap.

*CODEC Informations*

General
Complete name                    : Resident Evil Afterlife 2010 720p BRRip H.264 AAC-TheFalcon007 (Kingdom-Release).mp4
Format                           : MPEG-4
Format profile                   : Base Media / Version 2
Codec ID                         : mp42
File size                        : 2.12 GiB
Duration                         : 1h 36mn
Overall bit rate                 : 3 129 Kbps
Encoded date                     : UTC 2010-11-25 07:51:35
Tagged date                      : UTC 2010-11-25 07:51:35
Writing application              : Yamb 2.1.0.0
Copyright                        : TheFalcon007

Video
ID                               : 1
Format                           : AVC
Format/Info                      : Advanced Video Codec
Format profile                   : High@L4.1
Format settings, CABAC           : Yes
Format settings, ReFrames        : 12 frames
Codec ID                         : avc1
Codec ID/Info                    : Advanced Video Coding
Duration                         : 1h 36mn
Bit rate mode                    : Variable
Bit rate                         : 2 550 Kbps
Maximum bit rate                 : 12.7 Mbps
Width                            : 1 280 pixels
Height                           : 534 pixels
Display aspect ratio             : 2.35:1
Frame rate mode                  : Constant
Frame rate                       : 23.976 fps
Color space                      : YUV
Chroma subsampling               : 4:2:0
Bit depth                        : 8 bits
Scan type                        : Progressive
Bits/(Pixel*Frame)               : 0.156
Stream size                      : 1.72 GiB (81%)
Writing library                  : x264 core 98 r1649 c54c47d
Encoding settings                : X
Encoded date                     : UTC 2010-11-24 15:47:15
Tagged date                      : UTC 2010-11-25 07:53:01

Audio #1
ID                               : 2
Format                           : AAC
Format/Info                      : Advanced Audio Codec
Format version                   : Version 4
Format profile                   : LC
Format settings, SBR             : No
Codec ID                         : 40
Duration                         : 1h 36mn
Bit rate mode                    : Variable
Bit rate                         : 446 Kbps
Maximum bit rate                 : 589 Kbps
Channel(s)                       : 6 channels
Channel positions                : Front: L C R, Side: L R, LFE
Sampling rate                    : 48.0 KHz
Stream size                      : 309 MiB (14%)
Encoded date                     : UTC 2010-11-25 07:52:45
Tagged date                      : UTC 2010-11-25 07:53:01

Audio #2
ID                               : 3
Format                           : AAC
Format/Info                      : Advanced Audio Codec
Format version                   : Version 4
Format profile                   : LC
Format settings, SBR             : No
Codec ID                         : 40
Duration                         : 1h 36mn
Bit rate mode                    : Variable
Bit rate                         : 128 Kbps
Maximum bit rate                 : 250 Kbps
Channel(s)                       : 2 channels
Channel positions                : Front: L R
Sampling rate                    : 48.0 KHz
Stream size                      : 88.6 MiB (4%)
Encoded date                     : UTC 2010-11-25 07:52:57
Tagged date                      : UTC 2010-11-25 07:53:01

Torrent HASH: 455B75D9 1CE85C1C 0735D182 94D676D5 6FD04C08

Compatible with PS3 and XBox360!

NOTE: Glad to see ya back around KB. Can't wait for ya to get back in action. Continuing the legacy of great quality, KiNGDOM releases... TAKE IT or LEAVE IT.
I am looking for some new sources cams,direct audio,dvd or vhs screeners, Dedicated Servers, TV Cappers, syncers or any thing else you can provide Contact us @ kingdom@hush.ai
Greets: KingBen, tiato, DiNGiE, Mazza, Richie, SecretMyth, BeLLBoY, IceBane, Deaftone and all of Kingdom & UKB, STG, IMAGiNE, The GRiM, KK, paulx1, HDLiTE, Ho's, Wrath, MnM-RG, ReleaseLounge RG and all others I Respect, you know who y'all are R.I.P. SecretMyth.
Thanks to SceneUnderground
Thanks SaM for help!